<svg width="24" height="24" viewBox="0 0 24 24" fill="none" xmlns="http://www.w3.org/2000/svg">
<g id="Check-In Icon" clip-path="url(#clip0_385_91)">
<path id="Path" opacity="0.45" d="M20.5714 11.1429C20.5714 10.1961 21.3389 9.42857 22.2857 9.42857C23.2325 9.42857 24 10.1961 24 11.1429V20.5714C24 22.465 22.465 24 20.5714 24H3.42857C1.53502 24 0 22.465 0 20.5714V3.42857C0 1.53502 1.53502 0 3.42857 0H13.7143C14.6611 0 15.4286 0.767512 15.4286 1.71429C15.4286 2.66106 14.6611 3.42857 13.7143 3.42857H3.42857V20.5714H20.5714V11.1429Z" fill="#86909E"/>
<path id="Path_2" d="M11.7999 13.8055L19.137 2.49149C19.6547 1.69878 20.7169 1.47583 21.5096 1.99352C22.3024 2.5112 22.5253 3.57348 22.0076 4.36619L13.7151 17.1431C13.1905 17.9465 12.1086 18.1629 11.3153 17.623L5.89351 12.8461C5.1108 12.3134 4.90811 11.247 5.44079 10.4643C5.97346 9.68163 7.0398 9.47894 7.82251 10.0116L11.7999 13.8055Z" fill="#86909E"/>
</g>
<defs>
<clipPath id="clip0_385_91">
<rect width="24" height="24" fill="white"/>
</clipPath>
</defs>
</svg>
