<svg width="16" height="16" viewBox="0 0 16 16" fill="none" xmlns="http://www.w3.org/2000/svg">
<path fill-rule="evenodd" clip-rule="evenodd" d="M10.7995 5.46694C10.7995 7.01462 9.54688 8.26726 7.9992 8.26726C6.45153 8.26726 5.19888 7.01462 5.19888 5.46694C5.19888 3.91927 6.45153 2.66663 7.9992 2.66663C9.54688 2.66663 10.7995 3.91927 10.7995 5.46694ZM2.40198 7.4666C3.5071 7.4666 4.4022 6.5715 4.4022 5.46638C4.4022 4.36125 3.5071 3.46615 2.40198 3.46615C1.29685 3.46615 0.40175 4.36125 0.40175 5.46638C0.40175 6.5715 1.29685 7.4666 2.40198 7.4666ZM15.6035 5.46638C15.6035 6.5715 14.7084 7.4666 13.6032 7.4666C12.4981 7.4666 11.603 6.5715 11.603 5.46638C11.603 4.36125 12.4981 3.46615 13.6032 3.46615C14.7084 3.46615 15.6035 4.36125 15.6035 5.46638ZM14.4005 5.46751C14.4005 5.02746 14.0405 4.66742 13.6004 4.66742C13.1604 4.66742 12.8003 5.02746 12.8003 5.46751C12.8003 5.90756 13.1604 6.2676 13.6004 6.2676C14.0405 6.2676 14.4005 5.90756 14.4005 5.46751ZM3.19923 5.46751C3.19923 5.02746 2.83919 4.66742 2.39914 4.66742C1.95909 4.66742 1.59904 5.02746 1.59904 5.46751C1.59904 5.90756 1.95909 6.2676 2.39914 6.2676C2.83919 6.2676 3.19923 5.90756 3.19923 5.46751ZM12.3101 9.93984C11.6226 8.91973 10.2924 8.53968 9.11478 8.89722C8.75974 9.00474 8.3872 9.06474 7.99716 9.06474C7.60711 9.06474 7.23457 9.00474 6.87953 8.89722C5.7019 8.53968 4.37175 8.91723 3.68417 9.93984C3.37413 10.3999 3.19411 10.9525 3.19411 11.5475V12.6677C3.19411 13.3302 3.73167 13.8678 4.39425 13.8678H11.5951C12.2576 13.8678 12.7952 13.3302 12.7952 12.6677V11.5475C12.8002 10.9525 12.6202 10.3999 12.3101 9.93984ZM4.39936 11.5475V12.6676H11.6002V11.5475C11.6002 10.6349 10.8701 9.8923 9.96499 9.8673C9.32742 10.1323 8.66735 10.2673 7.99977 10.2673C7.33219 10.2673 6.67212 10.1323 6.03455 9.8673C5.12945 9.8923 4.39936 10.6374 4.39936 11.5475ZM13.9023 8.26726H13.3022C12.8696 8.26726 12.4671 8.39978 12.1321 8.6248C12.4671 8.87733 12.7621 9.17986 12.9922 9.5299C13.0897 9.4949 13.1922 9.4674 13.2997 9.4674H13.8998C14.3948 9.4674 14.7999 9.87244 14.7999 10.3675C14.7999 10.6975 15.0699 10.9676 15.3999 10.9676C15.73 10.9676 16 10.6975 16 10.3675C16.0025 9.20987 15.0599 8.26726 13.9023 8.26726ZM8.00034 3.8669C8.88294 3.8669 9.60052 4.58449 9.60052 5.46709C9.60052 6.34969 8.88294 7.06727 8.00034 7.06727C7.11774 7.06727 6.40016 6.34969 6.40016 5.46709C6.40016 4.58449 7.11774 3.8669 8.00034 3.8669ZM2.70031 8.26726C3.13285 8.26726 3.5354 8.39978 3.87044 8.6248C3.5354 8.87733 3.24037 9.17986 3.00784 9.5299C2.91283 9.4949 2.81032 9.4674 2.70031 9.4674H2.10024C1.60518 9.4674 1.20014 9.87244 1.20014 10.3675C1.20014 10.6975 0.930105 10.9676 0.600068 10.9676C0.270031 10.9676 0 10.6975 0 10.3675C0 9.20987 0.942607 8.26726 2.10024 8.26726H2.70031Z" fill="#red"/>
</svg>
